<svg width="45" height="45" viewBox="0 0 45 45" fill="none" xmlns="http://www.w3.org/2000/svg">
<circle cx="22.5" cy="22.5" r="22.5" fill="black"/>
<path d="M32.8749 33.75V31.25C32.8749 29.9239 32.3086 28.6521 31.3006 27.7145C30.2926 26.7768 28.9254 26.25 27.4999 26.25H16.7499C15.3243 26.25 13.9572 26.7768 12.9492 27.7145C11.9412 28.6521 11.3749 29.9239 11.3749 31.25V33.75" stroke="#FDFDFD" stroke-width="2" stroke-linecap="round" stroke-linejoin="round"/>
<path d="M22.1249 21.25C25.0934 21.25 27.4999 19.0114 27.4999 16.25C27.4999 13.4886 25.0934 11.25 22.1249 11.25C19.1563 11.25 16.7499 13.4886 16.7499 16.25C16.7499 19.0114 19.1563 21.25 22.1249 21.25Z" stroke="#FDFDFD" stroke-width="2" stroke-linecap="round" stroke-linejoin="round"/>
</svg>
