<svg width="40" height="40" viewBox="0 0 40 40" fill="none" xmlns="http://www.w3.org/2000/svg">
<path d="M26.7765 17.6509C27.2499 18.1243 27.2499 18.8917 26.7765 19.3651L19.5038 26.6378C19.2764 26.8651 18.9681 26.9928 18.6467 26.9928C18.3252 26.9928 18.0169 26.8651 17.7896 26.6378L14.1532 23.0015C13.6798 22.5281 13.6798 21.7606 14.1532 21.2873C14.6266 20.8139 15.394 20.8139 15.8674 21.2873L18.6467 24.0665L25.0623 17.6509C25.5357 17.1775 26.3031 17.1775 26.7765 17.6509Z" fill="white"/>
<path d="M8.94969 0.326172C9.61913 0.326172 10.1618 0.868857 10.1618 1.53829V2.75041H29.5558V1.53829C29.5558 0.868857 30.0984 0.326172 30.7679 0.326172C31.4373 0.326172 31.98 0.868857 31.98 1.53829V2.75041H34.4042C37.082 2.75041 39.2527 4.92115 39.2527 7.5989V34.2656C39.2527 36.9433 37.082 39.1141 34.4042 39.1141H5.31333C2.63559 39.1141 0.464844 36.9433 0.464844 34.2656V7.5989C0.464844 4.92116 2.63558 2.75041 5.31333 2.75041H7.73757V1.53829C7.73757 0.868857 8.28026 0.326172 8.94969 0.326172ZM2.88909 10.0231V34.2656C2.88909 35.6044 3.97446 36.6898 5.31333 36.6898H34.4042C35.7431 36.6898 36.8285 35.6044 36.8285 34.2656V10.0231H2.88909Z" fill="white"/>
</svg>
