<svg width="16" height="15" viewBox="0 0 16 15" fill="none" xmlns="http://www.w3.org/2000/svg">
<path d="M15.5 7.5C15.5 11.1244 12.1421 14.0625 8 14.0625C7.23429 14.0625 6.49538 13.9621 5.79953 13.7755C5.25217 14.0529 3.99476 14.586 1.87974 14.9323C1.69316 14.9628 1.55034 14.7676 1.62404 14.5935C1.95602 13.8093 2.25547 12.7651 2.34667 11.8126C1.19662 10.6593 0.5 9.15082 0.5 7.5C0.5 3.87563 3.85786 0.9375 8 0.9375C12.1421 0.9375 15.5 3.87563 15.5 7.5ZM5.1875 7.5C5.1875 6.98223 4.76777 6.5625 4.25 6.5625C3.73223 6.5625 3.3125 6.98223 3.3125 7.5C3.3125 8.01777 3.73223 8.4375 4.25 8.4375C4.76777 8.4375 5.1875 8.01777 5.1875 7.5ZM8.9375 7.5C8.9375 6.98223 8.51777 6.5625 8 6.5625C7.48223 6.5625 7.0625 6.98223 7.0625 7.5C7.0625 8.01777 7.48223 8.4375 8 8.4375C8.51777 8.4375 8.9375 8.01777 8.9375 7.5ZM11.75 8.4375C12.2678 8.4375 12.6875 8.01777 12.6875 7.5C12.6875 6.98223 12.2678 6.5625 11.75 6.5625C11.2322 6.5625 10.8125 6.98223 10.8125 7.5C10.8125 8.01777 11.2322 8.4375 11.75 8.4375Z" fill="white"/>
</svg>
