<svg width="16" height="16" viewBox="0 0 16 16" fill="none" xmlns="http://www.w3.org/2000/svg">
<path d="M15.2307 9.86546L13.8994 9.09671C14.0338 8.37171 14.0338 7.62796 13.8994 6.90296L15.2307 6.13421C15.3838 6.04671 15.4525 5.86546 15.4025 5.69671C15.0557 4.58421 14.465 3.57796 13.6932 2.74046C13.5744 2.61233 13.3807 2.58108 13.2307 2.66858L11.8994 3.43733C11.34 2.95608 10.6963 2.58421 9.9994 2.34046V0.806084C9.9994 0.631084 9.87753 0.477959 9.70566 0.440459C8.55878 0.184209 7.38378 0.196709 6.29316 0.440459C6.12128 0.477959 5.99941 0.631084 5.99941 0.806084V2.34358C5.30566 2.59046 4.66191 2.96233 4.09941 3.44046L2.77128 2.67171C2.61816 2.58421 2.42753 2.61233 2.30878 2.74358C1.53691 3.57796 0.946285 4.58421 0.59941 5.69983C0.546285 5.86858 0.61816 6.04983 0.771285 6.13733L2.10253 6.90608C1.96816 7.63108 1.96816 8.37483 2.10253 9.09983L0.771285 9.86858C0.61816 9.95608 0.54941 10.1373 0.59941 10.3061C0.946285 11.4186 1.53691 12.4248 2.30878 13.2623C2.42753 13.3905 2.62128 13.4217 2.77128 13.3342L4.10253 12.5655C4.66191 13.0467 5.30566 13.4186 6.00253 13.6623V15.1998C6.00253 15.3748 6.12441 15.528 6.29628 15.5655C7.44316 15.8217 8.61816 15.8092 9.70878 15.5655C9.88066 15.528 10.0025 15.3748 10.0025 15.1998V13.6623C10.6963 13.4155 11.34 13.0436 11.9025 12.5655L13.2338 13.3342C13.3869 13.4217 13.5775 13.3936 13.6963 13.2623C14.4682 12.428 15.0588 11.4217 15.4057 10.3061C15.4525 10.1342 15.3838 9.95296 15.2307 9.86546ZM7.99941 10.4998C6.62128 10.4998 5.49941 9.37796 5.49941 7.99983C5.49941 6.62171 6.62128 5.49983 7.99941 5.49983C9.37753 5.49983 10.4994 6.62171 10.4994 7.99983C10.4994 9.37796 9.37753 10.4998 7.99941 10.4998Z" fill="white"/>
</svg>
