<svg width="40" height="40" viewBox="0 0 40 40" fill="none" xmlns="http://www.w3.org/2000/svg">
<path fill-rule="evenodd" clip-rule="evenodd" d="M20 8.23204L35 23.232V33.7498C35 35.8209 33.3211 37.4998 31.25 37.4998H8.75C6.67893 37.4998 5 35.8209 5 33.7498V23.232L20 8.23204Z" fill="white"/>
<path fill-rule="evenodd" clip-rule="evenodd" d="M32.5 6.24981V14.9998L27.5 9.99981V6.24981C27.5 5.55946 28.0596 4.99981 28.75 4.99981H31.25C31.9404 4.99981 32.5 5.55946 32.5 6.24981Z" fill="white"/>
<path fill-rule="evenodd" clip-rule="evenodd" d="M18.2322 3.74981C19.2085 2.7735 20.7915 2.7735 21.7678 3.74981L38.3839 20.3659C38.872 20.8541 38.872 21.6455 38.3839 22.1337C37.8957 22.6219 37.1043 22.6219 36.6161 22.1337L20 5.51758L3.38388 22.1337C2.89573 22.6219 2.10427 22.6219 1.61612 22.1337C1.12796 21.6455 1.12796 20.8541 1.61612 20.3659L18.2322 3.74981Z" fill="white"/>
</svg>
