<svg xmlns="http://www.w3.org/2000/svg" xmlns:xlink="http://www.w3.org/1999/xlink" width="500" zoomAndPan="magnify" viewBox="0 0 375 374.999991" height="500" preserveAspectRatio="xMidYMid meet" version="1.0"><defs><clipPath id="id1"><path d="M 58.300781 166 L 124 166 L 124 232.285156 L 58.300781 232.285156 Z M 58.300781 166 " clip-rule="nonzero"/></clipPath><clipPath id="id2"><path d="M 82 142.980469 L 147.605469 142.980469 L 147.605469 209 L 82 209 Z M 82 142.980469 " clip-rule="nonzero"/></clipPath></defs><g clip-path="url(#id1)"><path fill="rgb(99.609375%, 26.669312%, 0%)" d="M 123.714844 217.214844 L 114.894531 217.214844 L 114.894531 223.460938 L 67.125 223.460938 L 67.125 175.691406 L 73.371094 175.691406 L 73.371094 166.871094 L 58.308594 166.871094 L 58.308594 232.28125 L 123.714844 232.28125 Z M 123.714844 217.214844 " fill-opacity="1" fill-rule="nonzero"/></g><g clip-path="url(#id2)"><path fill="rgb(100%, 100%, 100%)" d="M 82.191406 175.691406 L 82.191406 208.394531 L 147.601562 208.394531 L 147.601562 142.988281 L 82.191406 142.988281 Z M 91.003906 199.574219 L 91.003906 175.691406 L 114.894531 175.691406 L 114.894531 199.574219 Z M 91.003906 151.804688 L 138.78125 151.804688 L 138.78125 199.574219 L 123.714844 199.574219 L 123.714844 166.871094 L 91.011719 166.871094 Z M 91.003906 151.804688 " fill-opacity="1" fill-rule="nonzero"/></g><path fill="rgb(99.609375%, 26.669312%, 0%)" d="M 108.019531 182.570312 L 108.019531 192.695312 L 97.890625 192.695312 L 97.890625 182.570312 Z M 108.019531 182.570312 " fill-opacity="1" fill-rule="nonzero"/></svg>