<svg width="20" height="20" viewBox="0 0 20 20" fill="none" xmlns="http://www.w3.org/2000/svg">
<path d="M2.5 2.5C2.5 1.11929 3.61929 0 5 0H15C16.3807 0 17.5 1.11929 17.5 2.5V17.5C17.5 18.8807 16.3807 20 15 20H5C3.61929 20 2.5 18.8807 2.5 17.5V2.5ZM8.125 2.5C7.77982 2.5 7.5 2.77982 7.5 3.125C7.5 3.47018 7.77982 3.75 8.125 3.75H11.875C12.2202 3.75 12.5 3.47018 12.5 3.125C12.5 2.77982 12.2202 2.5 11.875 2.5H8.125ZM10 13.75C12.0711 13.75 13.75 12.0711 13.75 10C13.75 7.92893 12.0711 6.25 10 6.25C7.92893 6.25 6.25 7.92893 6.25 10C6.25 12.0711 7.92893 13.75 10 13.75ZM16.25 17.1941C15.182 16.0323 13.2792 15 10.0001 15C6.72081 15 4.818 16.0323 3.75 17.1943V17.5C3.75 18.1904 4.30964 18.75 5 18.75H15C15.6904 18.75 16.25 18.1904 16.25 17.5V17.1941Z" fill="#2A2962"/>
</svg>
