<svg width="40" height="40" viewBox="0 0 40 40" fill="none" xmlns="http://www.w3.org/2000/svg">
<path d="M17.5 35C17.5 35 15 35 15 32.5C15 30 17.5 22.5 27.5 22.5C37.5 22.5 40 30 40 32.5C40 35 37.5 35 37.5 35H17.5Z" fill="white"/>
<path d="M27.5 20C31.6421 20 35 16.6421 35 12.5C35 8.35786 31.6421 5 27.5 5C23.3579 5 20 8.35786 20 12.5C20 16.6421 23.3579 20 27.5 20Z" fill="white"/>
<path fill-rule="evenodd" clip-rule="evenodd" d="M13.0409 35C12.6889 34.2898 12.5 33.4479 12.5 32.5C12.5 29.1114 14.1976 25.6264 17.3398 23.1999C15.9652 22.7602 14.3627 22.5 12.5 22.5C2.5 22.5 0 30 0 32.5C0 35 2.5 35 2.5 35H13.0409Z" fill="white"/>
<path d="M11.25 20C14.7018 20 17.5 17.2018 17.5 13.75C17.5 10.2982 14.7018 7.5 11.25 7.5C7.79822 7.5 5 10.2982 5 13.75C5 17.2018 7.79822 20 11.25 20Z" fill="white"/>
</svg>
