<svg width="40" height="40" viewBox="0 0 40 40" fill="none" xmlns="http://www.w3.org/2000/svg">
<path d="M5 5C5 2.23858 7.23858 0 10 0H30C32.7614 0 35 2.23858 35 5V35C35 37.7614 32.7614 40 30 40H10C7.23858 40 5 37.7614 5 35V5ZM16.25 5C15.5596 5 15 5.55964 15 6.25C15 6.94036 15.5596 7.5 16.25 7.5H23.75C24.4404 7.5 25 6.94036 25 6.25C25 5.55964 24.4404 5 23.75 5H16.25ZM20 27.5C24.1421 27.5 27.5 24.1421 27.5 20C27.5 15.8579 24.1421 12.5 20 12.5C15.8579 12.5 12.5 15.8579 12.5 20C12.5 24.1421 15.8579 27.5 20 27.5ZM32.5 34.3883C30.3639 32.0645 26.5584 30 20.0001 30C13.4416 30 9.63601 32.0647 7.5 34.3885V35C7.5 36.3807 8.61929 37.5 10 37.5H30C31.3807 37.5 32.5 36.3807 32.5 35V34.3883Z" fill="white"/>
</svg>
