<svg width="34" height="21" viewBox="0 0 34 21" fill="none" xmlns="http://www.w3.org/2000/svg">
<path d="M10.5838 2.1C10.2611 2.1 9.95579 2.24499 9.75416 2.49407L3.27317 10.5H12.75C13.3368 10.5 13.8125 10.9701 13.8125 11.55C13.8125 13.2897 15.2396 14.7 17 14.7C18.7604 14.7 20.1875 13.2897 20.1875 11.55C20.1875 10.9701 20.6632 10.5 21.25 10.5H30.7268L24.2458 2.49407C24.0442 2.24499 23.7389 2.1 23.4162 2.1H10.5838ZM8.09481 1.18221C8.69971 0.434982 9.61552 0 10.5838 0H23.4162C24.3845 0 25.3003 0.434983 25.9052 1.18221L33.7672 10.8941C33.9464 11.1154 34.0274 11.399 33.9918 11.6802L33.162 18.2407C32.9626 19.8171 31.6066 21 29.9991 21H4.00092C2.39339 21 1.03742 19.8171 0.838031 18.2407L0.00820915 11.6802C-0.0273688 11.399 0.0536442 11.1154 0.232831 10.8941L8.09481 1.18221Z" fill="#D03800"/>
</svg>
