<svg width="27" height="26" viewBox="0 0 27 26" fill="none" xmlns="http://www.w3.org/2000/svg">
<path d="M0 3.40005C0 1.52225 1.51104 0 3.375 0H23.625C25.489 0 27 1.52225 27 3.40005V17.0002C27 18.878 25.489 20.4003 23.625 20.4003H7.44898C7.00143 20.4003 6.57221 20.5794 6.25574 20.8982L1.44037 25.7493C0.908837 26.2848 0 25.9056 0 25.1483V3.40005ZM5.90625 5.10007C5.44026 5.10007 5.0625 5.48064 5.0625 5.95009C5.0625 6.41954 5.44026 6.8001 5.90625 6.8001H21.0938C21.5597 6.8001 21.9375 6.41954 21.9375 5.95009C21.9375 5.48064 21.5597 5.10007 21.0938 5.10007H5.90625ZM5.90625 9.35014C5.44026 9.35014 5.0625 9.7307 5.0625 10.2001C5.0625 10.6696 5.44026 11.0502 5.90625 11.0502H21.0938C21.5597 11.0502 21.9375 10.6696 21.9375 10.2001C21.9375 9.7307 21.5597 9.35014 21.0938 9.35014H5.90625ZM5.90625 13.6002C5.44026 13.6002 5.0625 13.9808 5.0625 14.4502C5.0625 14.9197 5.44026 15.3002 5.90625 15.3002H14.3438C14.8097 15.3002 15.1875 14.9197 15.1875 14.4502C15.1875 13.9808 14.8097 13.6002 14.3438 13.6002H5.90625Z" fill="#2A2962"/>
</svg>
