<svg width="37" height="37" viewBox="0 0 37 37" fill="none" xmlns="http://www.w3.org/2000/svg">
<path d="M23.8958 21.5833H22.6779L22.2463 21.1671C23.7571 19.4096 24.6667 17.1279 24.6667 14.6458C24.6667 9.11125 20.1804 4.625 14.6458 4.625C9.11125 4.625 4.625 9.11125 4.625 14.6458C4.625 20.1804 9.11125 24.6667 14.6458 24.6667C17.1279 24.6667 19.4096 23.7571 21.1671 22.2463L21.5833 22.6779V23.8958L29.2917 31.5887L31.5887 29.2917L23.8958 21.5833ZM14.6458 21.5833C10.8071 21.5833 7.70833 18.4846 7.70833 14.6458C7.70833 10.8071 10.8071 7.70833 14.6458 7.70833C18.4846 7.70833 21.5833 10.8071 21.5833 14.6458C21.5833 18.4846 18.4846 21.5833 14.6458 21.5833Z" fill="#FBFBFB"/>
</svg>
