<svg width="503" height="502" viewBox="0 0 503 502" fill="none" xmlns="http://www.w3.org/2000/svg">
<path d="M502.858 251C502.915 285.966 495.631 320.554 481.476 352.527C481.02 353.559 480.556 354.586 480.087 355.606C479.855 356.12 479.617 356.627 479.38 357.14C479.142 357.647 478.904 358.16 478.66 358.667C478.347 359.324 478.034 359.975 477.715 360.626C477.32 361.446 476.92 362.26 476.507 363.074C476.456 363.186 476.4 363.299 476.338 363.412C475.993 364.1 475.649 364.789 475.292 365.477C475.217 365.628 475.142 365.778 475.061 365.922C474.654 366.723 474.234 367.524 473.809 368.319V368.325C473.358 369.17 472.905 370.013 472.45 370.854C471.324 372.932 470.166 374.991 468.977 377.032C468.62 377.639 468.269 378.246 467.906 378.847C467.574 379.411 467.243 379.968 466.905 380.525C466.673 380.913 466.442 381.295 466.204 381.676C465.828 382.296 465.446 382.916 465.058 383.535C465.052 383.542 465.052 383.542 465.052 383.548C464.194 384.925 463.318 386.296 462.436 387.654H462.429C462.022 388.286 461.609 388.912 461.196 389.538V389.544C459.951 391.422 458.68 393.281 457.384 395.122V395.128C457.379 395.128 457.375 395.131 457.372 395.134V395.14L457.359 395.153C456.333 396.624 455.285 398.082 454.217 399.528V399.534C453.535 400.461 452.846 401.387 452.151 402.301C451.582 403.052 451.006 403.801 450.424 404.548C450.305 404.711 450.18 404.867 450.048 405.03V405.036C449.892 405.243 449.735 405.443 449.566 405.65V405.656C447.094 408.817 444.546 411.915 441.924 414.951H441.917C441.78 415.12 441.636 415.283 441.492 415.446C441.354 415.608 441.204 415.771 441.06 415.94H441.054C440.835 416.197 440.609 416.453 440.384 416.71C440.165 416.967 439.933 417.223 439.702 417.48V417.486C426.031 432.91 410.517 446.596 393.508 458.235C391.242 459.793 388.947 461.31 386.622 462.785C386.046 463.154 385.471 463.517 384.888 463.881C384.713 463.999 384.538 464.106 384.363 464.212C384.056 464.406 383.743 464.6 383.43 464.794C383.123 464.982 382.81 465.176 382.497 465.364C381.252 466.128 379.994 466.879 378.735 467.617C378.423 467.805 378.103 467.987 377.784 468.174C377.471 468.356 377.152 468.537 376.833 468.719C376.828 468.726 376.823 468.731 376.816 468.735C376.81 468.74 376.803 468.743 376.795 468.744L376.783 468.75L376.77 468.763H376.764C375.186 469.67 373.603 470.566 372 471.429C369.134 472.994 366.238 474.503 363.312 475.955C362.586 476.318 361.854 476.675 361.122 477.031C360.515 477.326 359.901 477.62 359.294 477.908C359.125 477.989 358.962 478.07 358.793 478.146C358.286 478.383 357.779 478.621 357.272 478.853C356.721 479.116 356.164 479.366 355.613 479.617C354.994 479.898 354.38 480.174 353.761 480.449C351.432 481.488 349.079 482.49 346.719 483.454C338.289 486.905 329.673 489.885 320.912 492.379C320.505 492.498 320.092 492.617 319.679 492.73C315.929 493.781 312.153 494.743 308.349 495.615C301.708 497.143 295.006 498.397 288.244 499.377C288.232 499.377 288.213 499.384 288.2 499.384C287.393 499.503 286.579 499.615 285.772 499.728C285.703 499.74 285.628 499.753 285.553 499.759C285.546 499.765 285.54 499.765 285.528 499.759C285.528 499.759 285.528 499.765 285.521 499.759C284.626 499.878 283.731 499.997 282.83 500.11C282.767 500.122 282.705 500.128 282.642 500.135C281.803 500.235 280.958 500.335 280.113 500.429C279.206 500.529 278.298 500.623 277.384 500.717C276.689 500.786 275.995 500.855 275.3 500.917C275.238 500.93 275.175 500.936 275.112 500.936C274.48 500.992 273.848 501.049 273.215 501.099C273.19 501.099 273.159 501.105 273.134 501.105C272.583 501.155 272.032 501.193 271.482 501.236C265.003 501.75 258.462 502.004 251.858 502C244.692 502 237.598 501.702 230.577 501.105C230.552 501.105 230.527 501.099 230.502 501.099C229.006 500.973 227.512 500.836 226.02 500.686C225.626 500.648 225.237 500.604 224.843 500.567C224.768 500.56 224.693 500.554 224.618 500.542C224.499 500.529 224.38 500.517 224.255 500.504C224.192 500.498 224.123 500.491 224.061 500.479C223.541 500.423 223.022 500.366 222.496 500.304C221.914 500.235 221.325 500.166 220.743 500.091C220.161 500.022 219.573 499.947 218.991 499.866C218.865 499.853 218.734 499.841 218.609 499.815C218.183 499.765 217.757 499.709 217.338 499.646C217.132 499.621 216.931 499.59 216.731 499.559C216.324 499.502 215.924 499.446 215.517 499.384C215.504 499.384 215.485 499.377 215.473 499.377C202.691 497.531 190.073 494.687 177.735 490.871H177.729C177.059 490.664 176.389 490.451 175.72 490.239C175.519 490.182 175.319 490.12 175.119 490.051C173.379 489.494 171.649 488.918 169.93 488.323C167.558 487.51 165.202 486.658 162.863 485.769C162.225 485.525 161.592 485.281 160.954 485.037C159.683 484.536 158.419 484.036 157.161 483.522C155.014 482.646 152.881 481.743 150.764 480.812H150.757V480.806C148.779 479.936 146.816 479.039 144.867 478.114C144.81 478.097 144.755 478.072 144.705 478.039C144.698 478.039 144.698 478.033 144.692 478.033C144.26 477.833 143.828 477.626 143.396 477.419L143.384 477.413C132.648 472.267 122.295 466.355 112.406 459.724C109.233 457.602 106.114 455.41 103.049 453.146C100.576 451.324 98.1392 449.457 95.7377 447.544C83.7754 438.036 72.7048 427.458 62.6633 415.94H62.6571V415.934C61.9497 415.126 61.2612 414.325 60.5602 413.512V413.505C60.46 413.393 60.3661 413.28 60.2722 413.167C59.8278 412.648 59.3959 412.134 58.964 411.609V411.602C58.3756 410.908 57.7998 410.211 57.2364 409.512C57.1113 409.362 56.9923 409.218 56.8734 409.067H56.8672V409.061C56.404 408.498 55.947 407.928 55.4964 407.359C55.2648 407.077 55.0394 406.789 54.8141 406.501H54.8078V406.495C53.4433 404.773 52.1058 403.035 50.7956 401.281V401.275C50.4325 400.793 50.0758 400.311 49.7252 399.822H49.719C48.0415 397.556 46.4078 395.263 44.8179 392.943V392.937C44.217 392.067 43.6224 391.191 43.034 390.308C42.4456 389.426 41.8635 388.541 41.2876 387.654H41.2814C40.6868 386.74 40.0984 385.822 39.5162 384.9C39.4849 384.85 39.4537 384.806 39.4286 384.762C38.8528 383.855 38.2852 382.941 37.7261 382.021C37.2754 381.288 36.831 380.562 36.3991 379.83C36.0987 379.335 35.8045 378.847 35.5166 378.347C35.4101 378.177 35.3163 378.009 35.2224 377.846C34.5589 376.713 33.9079 375.58 33.2569 374.441C32.4995 373.101 31.7484 371.749 31.0161 370.397C30.7156 369.84 30.4152 369.277 30.121 368.713C30.0146 368.532 29.9207 368.35 29.8268 368.163C29.4763 367.499 29.1257 366.836 28.7815 366.166C28.4372 365.502 28.093 364.833 27.755 364.163C27.417 363.493 27.0789 362.823 26.7472 362.147C26.4968 361.64 26.2464 361.127 26.0023 360.62C25.9769 360.578 25.954 360.534 25.9335 360.489C25.8208 360.251 25.7019 360.019 25.5955 359.781C25.5705 359.745 25.5515 359.705 25.5391 359.662C25.2825 359.137 25.0321 358.617 24.788 358.091C24.4625 357.415 24.1496 356.733 23.8366 356.051C23.6113 355.575 23.3985 355.093 23.1794 354.611C22.8664 353.935 22.5597 353.253 22.2592 352.564C21.94 351.857 21.6333 351.143 21.3266 350.43C21.2452 350.248 21.1701 350.073 21.095 349.891C20.951 349.566 20.8133 349.241 20.6756 348.915C20.3063 348.051 19.9433 347.175 19.5865 346.305C19.1796 345.322 18.7832 344.337 18.3972 343.35C18.0279 342.43 17.669 341.508 17.3206 340.584L17.1891 340.246V340.24C11.7504 325.946 7.63533 311.183 4.89577 296.136V296.13C3.33368 287.539 2.22219 278.873 1.56583 270.166C1.52828 269.69 1.49695 269.215 1.46568 268.739C1.05256 262.849 0.850178 256.936 0.858524 251C0.858524 248.365 0.900251 245.742 0.983709 243.132C2.60662 188.562 22.0592 136.026 56.3664 93.5585C57.875 91.687 59.4106 89.8384 60.9733 88.0127C107.005 34.1448 175.444 0 251.858 0C341.198 0 419.64 46.676 464.113 116.975C466.429 120.618 468.645 124.327 470.76 128.104C491.871 165.619 502.927 207.953 502.858 251V251Z" fill="#F2F2F2"/>
<path d="M373.403 448.013C372.501 450.504 371.602 452.996 370.705 455.487C370.536 455.962 370.361 456.432 370.192 456.908C367.901 463.255 365.608 469.604 363.313 475.955C362.586 476.318 361.854 476.675 361.122 477.031C360.515 477.326 359.901 477.62 359.294 477.908C359.125 477.989 358.962 478.071 358.793 478.146C358.286 478.383 357.779 478.621 357.272 478.853C356.721 479.116 356.164 479.366 355.614 479.617C354.994 479.898 354.38 480.174 353.761 480.449C353.439 479.61 353.255 478.724 353.216 477.826C353.189 476.417 353.356 475.01 353.711 473.645C354.255 471.392 355.119 469.182 355.689 466.923C355.72 466.816 355.745 466.704 355.77 466.597C357.04 461.202 356.453 455.537 354.105 450.517C352.69 447.525 350.662 444.802 349.78 441.61C349.013 438.612 349.353 435.439 350.737 432.671C351.251 431.598 351.897 430.593 352.659 429.679C352.841 429.448 353.035 429.229 353.235 429.01C355.076 426.987 357.522 425.615 360.208 425.098C365.347 424.184 370.717 426.919 373.59 431.213C374.768 432.938 375.485 434.935 375.675 437.015C375.988 440.777 374.686 444.464 373.403 448.013Z" fill="#E4E4E4"/>
<path d="M359.213 473.439C358.036 471.267 356.064 469.364 355.689 466.923C354.468 459.086 351.526 453.465 346.65 450.279C345.236 449.359 345.01 447.325 344.14 445.86C343.752 445.203 343.358 444.545 342.951 443.901C342.294 442.83 341.609 441.781 340.898 440.752C339.549 438.764 338.062 436.873 336.447 435.094C335.778 434.349 335.07 433.629 334.338 432.947L334.332 432.941C333.875 432.502 333.412 432.083 332.93 431.676C332.742 431.513 332.548 431.351 332.347 431.188L332.335 431.175C331.489 430.442 330.603 429.757 329.681 429.122C327.559 427.689 325.162 426.694 322.702 427.489C321.735 427.82 320.804 428.248 319.923 428.766C319.472 429.022 319.028 429.291 318.583 429.561C318.283 429.742 317.982 429.924 317.682 430.111C317.438 430.255 317.194 430.399 316.949 430.537C315.059 431.626 313.161 432.694 311.253 433.742C310.978 433.898 310.703 434.048 310.421 434.199H310.415C310.221 434.311 310.02 434.418 309.82 434.524C309.438 434.737 309.05 434.95 308.668 435.156C307.523 435.776 306.375 436.39 305.226 436.997C304.637 437.31 304.043 437.61 303.448 437.911C303.173 438.048 302.897 438.186 302.628 438.33H302.622C302.522 438.38 302.428 438.43 302.328 438.48C301.514 438.9 300.713 439.331 299.937 439.801C297.685 441.157 295.729 442.951 294.184 445.077C293.884 445.491 293.596 445.916 293.333 446.354C292.988 446.921 292.675 447.506 292.394 448.107C292.2 448.514 292.018 448.921 291.856 449.334V449.34C290.317 453.296 290.102 457.645 291.242 461.734V461.74C291.317 462.022 291.399 462.297 291.493 462.572C291.643 463.036 291.812 463.499 292 463.949C292.207 464.452 292.441 464.943 292.701 465.42V465.427C294.094 467.803 295.832 469.959 297.858 471.824L297.921 471.886C298.171 472.13 298.428 472.381 298.678 472.625C298.816 472.756 298.96 472.888 299.11 473.013C301.276 474.872 304.775 476.28 306.753 478.189C307.811 479.21 308.431 480.368 308.186 481.814C307.535 485.651 307.679 488.136 308.343 489.732C310.146 494.088 315.804 491.872 319.679 492.73C320.092 492.617 320.505 492.498 320.912 492.379C329.673 489.885 338.289 486.905 346.719 483.454C349.079 482.49 351.432 481.488 353.761 480.449C354.38 480.174 354.994 479.898 355.613 479.617C356.164 479.366 356.721 479.116 357.272 478.853C357.779 478.621 358.286 478.383 358.793 478.146C358.962 478.071 359.125 477.989 359.294 477.908C359.901 477.62 360.515 477.326 361.122 477.031C360.502 475.823 359.857 474.628 359.213 473.439Z" fill="#E4E4E4"/>
<path d="M313.417 412.669C314.732 408.696 312.923 406.074 308.268 404.683C308.109 404.539 307.916 404.437 307.707 404.387C307.499 404.336 307.281 404.339 307.073 404.395C306.866 404.45 306.676 404.557 306.52 404.705C306.365 404.853 306.249 405.038 306.184 405.242L302.119 417.286C297.868 416.198 294.749 416.943 294.072 421.148C295.75 416.865 294.172 414.178 289.451 413.032C289.298 412.879 289.108 412.768 288.9 412.708C288.692 412.648 288.472 412.641 288.261 412.689C288.05 412.737 287.854 412.838 287.692 412.981C287.53 413.125 287.408 413.308 287.335 413.512L284.662 424.359C281.407 429.263 279.808 435.081 280.101 440.959C280.393 446.838 282.561 452.468 286.287 457.025C290.013 461.582 295.101 464.825 300.804 466.279C306.508 467.733 312.527 467.321 317.98 465.104C323.433 462.888 328.032 458.982 331.103 453.961C334.174 448.94 335.556 443.067 335.045 437.203C334.535 431.339 332.159 425.793 328.267 421.378C324.375 416.963 319.17 413.911 313.416 412.669H313.417Z" fill="#E4E4E4"/>
<path d="M310.829 446.993C310.279 447.287 309.636 447.351 309.039 447.171C308.443 446.991 307.942 446.582 307.646 446.033C307.605 445.955 307.596 445.863 307.622 445.778C307.647 445.693 307.706 445.622 307.784 445.58C307.862 445.538 307.954 445.528 308.039 445.554C308.124 445.579 308.196 445.638 308.238 445.716C308.449 446.107 308.807 446.399 309.233 446.527C309.659 446.655 310.118 446.609 310.51 446.399C310.902 446.189 311.194 445.831 311.323 445.406C311.452 444.98 311.406 444.52 311.197 444.128C311.155 444.05 311.146 443.958 311.172 443.873C311.198 443.788 311.256 443.717 311.334 443.675C311.413 443.633 311.504 443.623 311.589 443.649C311.675 443.674 311.746 443.732 311.788 443.811C312.082 444.36 312.146 445.004 311.967 445.6C311.787 446.197 311.377 446.698 310.829 446.993V446.993Z" fill="white"/>
<path d="M308.369 442.055C309.677 441.353 310.517 440.377 310.248 439.874C309.978 439.372 308.7 439.533 307.392 440.234C306.085 440.936 305.244 441.912 305.514 442.414C305.784 442.917 307.062 442.756 308.369 442.055Z" fill="white"/>
<path d="M294.476 442.906C294.652 442.049 295.015 441.241 295.539 440.54C296.062 439.838 296.733 439.26 297.504 438.846C298.275 438.432 299.128 438.193 300.002 438.145C300.875 438.097 301.749 438.241 302.561 438.568C302.97 437.319 302.999 435.976 302.644 434.711C302.29 433.445 301.569 432.313 300.571 431.458C299.573 430.602 298.344 430.062 297.04 429.905C295.735 429.748 294.413 429.982 293.241 430.576C292.069 431.17 291.099 432.099 290.455 433.244C289.811 434.39 289.52 435.7 289.621 437.011C289.722 438.321 290.208 439.572 291.02 440.606C291.832 441.639 292.931 442.409 294.18 442.817V442.817C294.278 442.849 294.377 442.879 294.476 442.906Z" fill="white"/>
<path d="M296.461 440.494C297.723 440.494 298.747 439.471 298.747 438.209C298.747 436.946 297.723 435.923 296.461 435.923C295.199 435.923 294.175 436.946 294.175 438.209C294.175 439.471 295.199 440.494 296.461 440.494Z" fill="#3F3D56"/>
<path d="M310.297 434.681C310.474 433.824 310.837 433.016 311.36 432.314C311.883 431.613 312.554 431.035 313.325 430.621C314.096 430.207 314.949 429.968 315.823 429.919C316.697 429.871 317.571 430.016 318.383 430.342C318.791 429.093 318.82 427.751 318.466 426.485C318.111 425.22 317.39 424.088 316.392 423.233C315.395 422.377 314.166 421.837 312.861 421.68C311.556 421.523 310.234 421.756 309.062 422.351C307.89 422.945 306.921 423.874 306.276 425.019C305.632 426.164 305.342 427.475 305.442 428.785C305.543 430.096 306.03 431.347 306.841 432.38C307.653 433.414 308.753 434.183 310.002 434.592V434.592C310.099 434.624 310.198 434.654 310.297 434.681Z" fill="white"/>
<path d="M313.121 432.141C314.383 432.141 315.407 431.118 315.407 429.856C315.407 428.593 314.383 427.57 313.121 427.57C311.859 427.57 310.835 428.593 310.835 429.856C310.835 431.118 311.859 432.141 313.121 432.141Z" fill="#3F3D56"/>
<path d="M324.591 429.698L316.787 437.65L317.575 438.423L325.379 430.471L324.591 429.698Z" fill="white"/>
<path d="M327.071 433.545L317.642 439.482L318.23 440.416L327.659 434.479L327.071 433.545Z" fill="white"/>
<path d="M300.045 446.634L289.104 448.74L289.313 449.824L300.254 447.718L300.045 446.634Z" fill="white"/>
<path d="M301.099 448.359L290.94 452.934L291.393 453.94L301.552 449.365L301.099 448.359Z" fill="white"/>
<path d="M14.5081 271.377C15.0917 263.149 12.5527 255.003 7.39728 248.564C6.88598 247.927 7.90231 247.167 8.413 247.804C13.7653 254.514 16.3903 262.996 15.7642 271.557C15.704 272.373 14.4482 272.188 14.5081 271.377Z" fill="white"/>
<path d="M41.8841 162.113C41.8675 162.624 41.8508 163.134 41.8427 163.651C41.6545 170.517 42.0244 177.387 42.9487 184.192C43.0118 184.72 43.0837 185.253 43.1618 185.778C45.5635 202.15 50.9841 217.935 59.1479 232.329C62.4018 238.054 66.0865 243.523 70.1701 248.688C75.8101 255.822 82.4929 263.108 85.3624 271.443C85.6716 272.309 85.9267 273.194 86.1265 274.092L59.2705 312.592C59.1655 312.649 59.069 312.712 58.9638 312.769L57.9618 314.355C57.7326 314.104 57.5002 313.838 57.271 313.586C57.1375 313.441 57.0099 313.287 56.8763 313.141C56.7891 313.041 56.7022 312.941 56.6179 312.856C56.5888 312.823 56.5599 312.79 56.5395 312.763C56.4552 312.678 56.3859 312.59 56.3103 312.511C55.0076 311.028 53.713 309.533 52.4266 308.026C52.4178 308.02 52.4178 308.02 52.415 308.005C42.6424 296.5 33.7445 284.078 27.0149 270.7C26.8126 270.298 26.6012 269.889 26.4111 269.469C23.4111 263.422 20.9104 257.14 18.934 250.686C17.8631 247.148 16.972 243.559 16.2641 239.931C14.4529 230.554 14.128 220.95 15.3013 211.472C17.6429 192.578 26.0011 174.643 40.7487 162.992C41.1261 162.694 41.4978 162.405 41.8841 162.113Z" fill="#E6E6E6"/>
<path d="M42.3124 162.54C32.8409 184.135 30.207 208.896 35.3253 231.951C36.4319 236.935 37.9882 241.895 40.5989 246.312C43.1767 250.597 46.8551 254.114 51.2519 256.497C55.3068 258.802 59.7214 260.689 63.1455 263.939C66.7548 267.365 68.3848 272.064 68.2871 276.986C68.1675 283.009 65.8909 288.629 63.4737 294.048C60.7898 300.065 57.9067 306.272 58.132 313.014C58.1592 313.831 56.8902 313.825 56.863 313.01C56.4711 301.281 64.8846 291.799 66.6935 280.529C67.5376 275.27 66.8021 269.725 63.0801 265.68C59.8255 262.143 55.2748 260.193 51.1489 257.895C46.8167 255.482 43.1218 252.49 40.3615 248.324C37.5379 244.062 35.7843 239.153 34.5552 234.219C31.8514 223.009 30.927 211.444 31.8158 199.947C32.7573 186.82 35.9375 173.951 41.2187 161.896C41.5459 161.15 42.6374 161.799 42.3123 162.54L42.3124 162.54Z" fill="white"/>
<path d="M33.2663 224.545C29.2433 224.857 25.2403 223.729 21.9722 221.362C18.7041 218.996 16.3838 215.544 15.4255 211.625C15.2343 210.831 16.4588 210.496 16.6502 211.291C17.5358 214.943 19.6976 218.158 22.7453 220.355C25.7931 222.553 29.526 223.589 33.2705 223.276C34.0842 223.209 34.0754 224.478 33.2663 224.545Z" fill="white"/>
<path d="M49.042 255.6C54.4617 249.382 57.3386 241.349 57.099 233.104C57.0746 232.287 58.3436 232.292 58.368 233.108C58.6013 241.689 55.5904 250.042 49.9364 256.5C49.397 257.115 48.5056 256.212 49.042 255.6L49.042 255.6Z" fill="white"/>
<path d="M34.2497 187.597C35.8314 187.801 37.439 187.608 38.9279 187.037C40.4169 186.466 41.7407 185.534 42.7804 184.324C43.3117 183.703 44.2026 184.607 43.6747 185.225C42.5198 186.555 41.0566 187.583 39.4129 188.218C37.7692 188.853 35.9951 189.075 34.2455 188.866C34.0789 188.86 33.9208 188.791 33.8034 188.673C33.6859 188.555 33.6179 188.396 33.6131 188.23C33.6145 188.062 33.6821 187.901 33.8013 187.783C33.9205 187.664 34.0817 187.598 34.2497 187.597V187.597Z" fill="white"/>
<path d="M287.22 164.681C290.951 144.047 284.751 120.633 267.826 108.255C268.914 131.032 261.911 153.459 248.055 171.57C242.686 178.535 235.989 185.722 236.25 194.513C236.412 199.982 239.4 205.061 243.321 208.877C247.242 212.694 252.061 215.434 256.822 218.131L257.568 219.276C271.386 203.504 283.489 185.315 287.22 164.681Z" fill="#E6E6E6"/>
<path d="M267.52 108.572C274.693 124.377 276.704 142.04 273.267 159.052C272.592 162.727 271.342 166.273 269.562 169.56C267.726 172.705 265.081 175.301 261.901 177.078C258.97 178.794 255.773 180.211 253.311 182.61C252.068 183.857 251.104 185.352 250.48 186.998C249.856 188.643 249.587 190.402 249.69 192.16C249.835 196.544 251.546 200.616 253.357 204.539C255.369 208.895 257.527 213.388 257.427 218.299C257.415 218.894 258.339 218.878 258.351 218.284C258.525 209.739 252.309 202.914 250.884 194.724C250.22 190.903 250.703 186.858 253.375 183.877C255.712 181.27 259.007 179.807 261.99 178.095C265.116 176.407 267.782 173.978 269.754 171.023C271.695 167.838 273.08 164.345 273.849 160.696C275.711 152.507 276.275 144.077 275.519 135.713C274.709 126.163 272.271 116.821 268.311 108.093C268.065 107.553 267.277 108.036 267.52 108.572L267.52 108.572Z" fill="white"/>
<path d="M274.696 153.639C277.628 153.828 280.533 152.969 282.89 151.214C285.248 149.46 286.905 146.925 287.565 144.061C287.697 143.481 286.802 143.249 286.67 143.83C286.06 146.498 284.516 148.859 282.318 150.488C280.119 152.118 277.41 152.907 274.681 152.715C274.087 152.674 274.106 153.598 274.696 153.639V153.639Z" fill="white"/>
<path d="M263.502 176.403C259.497 171.926 257.325 166.104 257.422 160.098C257.432 159.503 256.508 159.519 256.498 160.113C256.409 166.364 258.681 172.418 262.859 177.067C263.258 177.51 263.899 176.844 263.502 176.403V176.403Z" fill="white"/>
<path d="M273.629 126.743C272.48 126.906 271.307 126.781 270.217 126.379C269.128 125.977 268.155 125.311 267.386 124.44C266.993 123.992 266.353 124.659 266.743 125.104C267.597 126.062 268.672 126.797 269.875 127.244C271.078 127.69 272.372 127.835 273.645 127.667C273.766 127.661 273.88 127.609 273.965 127.522C274.049 127.435 274.097 127.319 274.099 127.197C274.096 127.075 274.046 126.958 273.958 126.873C273.87 126.788 273.752 126.741 273.629 126.743L273.629 126.743Z" fill="white"/>
<path d="M199.009 125.707C199.246 125.993 199.483 126.28 199.719 126.574C202.889 130.443 205.74 134.563 208.243 138.893C208.442 139.225 208.639 139.564 208.828 139.901C214.747 150.398 218.667 161.904 220.386 173.832C221.066 178.579 221.384 183.371 221.337 188.166C221.271 194.789 220.674 201.964 222.739 208.043C222.947 208.679 223.195 209.303 223.48 209.908L256.113 220.096C256.199 220.082 256.283 220.076 256.369 220.062L257.653 220.528C257.673 220.281 257.688 220.024 257.708 219.777C257.72 219.634 257.725 219.488 257.737 219.345C257.742 219.248 257.748 219.152 257.758 219.065C257.76 219.033 257.762 219.001 257.762 218.977C257.772 218.89 257.773 218.809 257.782 218.729C257.87 217.294 257.949 215.856 258.017 214.415C258.02 214.408 258.02 214.408 258.015 214.398C258.51 203.415 258.092 192.295 256 181.592C255.937 181.27 255.876 180.94 255.799 180.614C254.829 175.794 253.467 171.062 251.726 166.465C250.765 163.95 249.677 161.486 248.466 159.082C245.327 152.875 241.23 147.201 236.328 142.268C226.553 132.434 213.741 125.836 200.055 125.706C199.704 125.703 199.361 125.702 199.009 125.707Z" fill="#E6E6E6"/>
<path d="M198.953 126.144C214.195 134.444 226.435 147.336 233.933 162.989C235.607 166.33 236.744 169.914 237.302 173.609C237.729 177.226 237.18 180.892 235.711 184.225C234.405 187.36 232.705 190.415 232.183 193.814C231.942 195.557 232.072 197.332 232.564 199.022C233.057 200.711 233.901 202.278 235.042 203.618C237.797 207.033 241.614 209.253 245.423 211.295C249.652 213.562 254.08 215.85 256.957 219.831C257.306 220.314 258.034 219.745 257.686 219.263C252.68 212.336 243.607 210.629 237.539 204.947C234.708 202.296 232.658 198.776 232.997 194.787C233.293 191.299 235.043 188.146 236.394 184.983C237.874 181.753 238.541 178.209 238.336 174.662C237.968 170.95 236.971 167.328 235.388 163.951C231.945 156.292 227.319 149.221 221.68 142.998C215.283 135.861 207.712 129.87 199.295 125.285C198.774 125.002 198.435 125.862 198.953 126.144L198.953 126.144Z" fill="white"/>
<path d="M231.815 157.807C234.271 156.192 236.072 153.758 236.898 150.937C237.724 148.117 237.521 145.095 236.324 142.411C236.08 141.869 235.226 142.223 235.47 142.766C236.589 145.263 236.778 148.078 236.004 150.702C235.229 153.327 233.542 155.588 231.247 157.078C230.748 157.403 231.32 158.129 231.815 157.807V157.807Z" fill="white"/>
<path d="M236.583 182.722C230.69 181.559 225.451 178.218 221.912 173.364C221.561 172.883 220.833 173.452 221.183 173.933C224.875 178.977 230.334 182.443 236.47 183.639C237.055 183.753 237.165 182.835 236.583 182.722V182.722Z" fill="white"/>
<path d="M214.77 136.974C213.95 137.796 212.939 138.403 211.827 138.738C210.715 139.073 209.537 139.127 208.399 138.894C207.816 138.773 207.706 139.691 208.286 139.811C209.544 140.062 210.845 140.001 212.074 139.634C213.304 139.266 214.425 138.603 215.339 137.702C215.432 137.625 215.492 137.514 215.507 137.394C215.522 137.274 215.49 137.152 215.419 137.054C215.343 136.958 215.232 136.895 215.111 136.88C214.99 136.865 214.867 136.899 214.77 136.974L214.77 136.974Z" fill="white"/>
<path d="M32.3106 236.615C36.8284 236.614 41.1613 238.409 44.3559 241.604C47.5505 244.798 49.3452 249.131 49.3452 253.649V253.649C49.3446 257.601 47.9704 261.429 45.4579 264.479C42.9454 267.529 39.4509 269.611 35.5725 270.368V298.229H24.6993V236.615H32.3106Z" fill="#3F3D56"/>
<path d="M449.568 399.82V405.654C447.096 408.815 444.548 411.913 441.925 414.949C441.644 415.281 441.356 415.606 441.061 415.938C440.617 416.457 440.16 416.971 439.703 417.484V399.82H449.568Z" fill="#CACACA"/>
<path d="M420.625 387.652C418.444 387.654 416.354 388.522 414.812 390.064C413.27 391.606 412.402 393.696 412.4 395.877V407.713C412.402 409.894 413.27 411.984 414.812 413.526C416.354 415.068 418.444 415.935 420.625 415.938H441.061C441.356 415.606 441.644 415.281 441.925 414.949C444.548 411.913 447.095 408.815 449.568 405.654C449.731 405.447 449.893 405.241 450.05 405.034C451.465 403.225 452.854 401.385 454.219 399.532C455.283 398.08 456.341 396.615 457.373 395.138C457.38 395.132 457.386 395.132 457.386 395.126C459.113 392.672 460.797 390.181 462.437 387.652H420.625Z" fill="#3F3D56"/>
<path d="M473.247 286.338C471.991 285.904 470.67 285.684 469.341 285.687H465.98C464.756 285.688 463.538 285.871 462.368 286.232C459.9 287.007 457.744 288.549 456.212 290.634C454.68 292.718 453.853 295.237 453.849 297.824V396.565C453.849 396.935 453.868 397.298 453.899 397.654C453.954 398.288 454.061 398.916 454.219 399.532C455.283 398.08 456.341 396.615 457.373 395.138C457.38 395.132 457.386 395.132 457.386 395.126C459.113 392.672 460.797 390.181 462.437 387.652C463.32 386.294 464.196 384.923 465.054 383.546C471.25 373.604 476.739 363.238 481.478 352.524V297.824C481.475 295.29 480.68 292.821 479.205 290.761C477.729 288.701 475.646 287.155 473.247 286.338Z" fill="#3F3D56"/>
<path d="M58.9657 399.82V411.606C56.149 408.239 53.4262 404.796 50.7973 401.278C50.4342 400.796 50.0774 400.308 49.7206 399.82H58.9657Z" fill="#CACACA"/>
<path d="M78.0442 387.652H41.283C42.441 389.436 43.6198 391.199 44.8195 392.941C46.4094 395.263 48.0431 397.556 49.7206 399.82C50.0774 400.308 50.4342 400.797 50.7972 401.278C53.4324 404.796 56.1552 408.239 58.9657 411.606C59.4915 412.245 60.0235 412.877 60.5618 413.509C61.2503 414.323 61.9493 415.132 62.6587 415.938H78.0442C80.2241 415.935 82.3138 415.067 83.8547 413.525C85.3955 411.983 86.2616 409.893 86.2627 407.713V395.877C86.2616 393.697 85.3955 391.606 83.8547 390.064C82.3138 388.522 80.2241 387.655 78.0442 387.652V387.652Z" fill="#3F3D56"/>
<path d="M38.2911 287.058C36.558 286.159 34.6348 285.689 32.6827 285.687H29.3277C27.7401 285.685 26.1679 285.998 24.702 286.607C22.4812 287.525 20.5823 289.08 19.2453 291.076C17.9083 293.073 17.1934 295.421 17.1908 297.824V340.244C23.5109 356.859 31.5874 372.752 41.283 387.652C42.441 389.436 43.6199 391.199 44.8196 392.941V297.824C44.8179 295.604 44.2086 293.428 43.0578 291.53C41.9069 289.632 40.2584 288.085 38.2911 287.058V287.058Z" fill="#3F3D56"/>
<path d="M175.035 470.383L186.062 467.853L181.551 424.118L165.277 427.852L175.035 470.383Z" fill="#9E616A"/>
<path d="M185.067 432.437C184.841 431.667 184.688 430.877 184.61 430.078C184.518 429.133 184.334 428.2 184.059 427.292C183.745 426.466 183.358 425.67 182.901 424.914C182.682 424.513 182.45 424.113 182.244 423.706C182.036 423.299 181.856 422.879 181.705 422.448C175.252 403.388 166.245 377.487 159.998 362.326C156.324 353.407 133.727 350.44 112.408 349.683C109.81 349.589 107.231 349.526 104.709 349.495C103.839 349.482 102.975 349.47 102.118 349.463C99.9268 349.451 97.7924 349.451 95.7393 349.476C95.4702 349.476 95.201 349.476 94.9319 349.482C93.4359 349.495 91.9858 349.516 90.5816 349.545C80.9297 349.733 73.8379 350.171 72.5735 350.252L61.3129 343.173L59.1159 341.79L58.8843 343.173L57.1129 353.726L54.0896 371.734L61.6697 373.862L66.5895 375.24L95.7393 383.414L101.936 385.154L101.974 385.167L112.408 385.148L140.938 385.098L142.315 388.747C141.821 389.515 141.495 390.38 141.361 391.283C141.226 392.186 141.286 393.108 141.535 393.987C141.784 394.865 142.218 395.681 142.807 396.379C143.395 397.077 144.126 397.642 144.95 398.036L146.021 398.543L159.059 433.045C159.099 436.165 160.073 439.203 161.857 441.764C162.076 442.083 162.314 442.396 162.564 442.703L162.852 443.047L167.866 452.855L170.852 452.167L183.558 449.256L183.621 449.131C183.627 449.112 183.79 448.768 184.027 448.167V448.148C185.023 445.663 187.226 438.872 185.067 432.437Z" fill="#2F2E41"/>
<path d="M216.044 473.292C215.569 471.19 214.683 469.202 213.437 467.443C212.191 465.684 210.609 464.19 208.783 463.045C206.957 461.9 204.922 461.127 202.797 460.772C200.671 460.417 198.495 460.485 196.396 460.974L187.589 456.999L185.123 458.733L174.895 465.906L174.05 466.1L171.309 466.726L175.095 483.232L216.169 473.812L216.044 473.292Z" fill="#2F2E41"/>
<path d="M161.563 447.842L157.838 478.037L157.713 479.026L157.162 483.526C155.015 482.65 152.875 481.742 150.759 480.81C148.781 479.94 146.818 479.043 144.869 478.118V447.848L161.563 447.842Z" fill="#9E616A"/>
<path d="M80.7455 240.261C93.2158 240.261 103.325 230.152 103.325 217.682C103.325 205.212 93.2158 195.102 80.7455 195.102C68.2752 195.102 58.166 205.212 58.166 217.682C58.166 230.152 68.2752 240.261 80.7455 240.261Z" fill="#9E616A"/>
<path d="M163.96 459.365C163.334 458.508 162.683 457.613 162.646 456.755C162.502 453.732 162.351 450.74 162.195 447.81C162.082 445.764 161.97 443.742 161.857 441.764C161.844 441.514 161.826 441.263 161.813 441.019C161.619 437.745 162.589 434.29 163.522 430.942C163.829 429.846 164.135 428.738 164.411 427.63C165.099 425.161 165.389 422.598 165.268 420.038C163.666 399.764 156.505 380.698 153.294 377.487C148.412 372.604 126.335 361.325 112.408 354.465C109.936 353.244 107.72 352.168 105.905 351.291C104.296 350.509 103 349.889 102.118 349.464C101.442 349.144 101.003 348.938 100.853 348.863L100.778 348.825L95.7394 349.388L94.9319 349.482L90.4878 349.983L61.5758 353.225L57.1129 353.726L50.7972 354.44L45.0949 355.078L44.8821 355.097L44.8446 355.31C44.8446 355.316 44.8321 355.36 44.8195 355.441C43.839 361.629 43.839 367.932 44.8195 374.119C45.5581 378.319 46.954 382.588 49.4327 386.181C49.7707 386.669 50.1212 387.139 50.4968 387.589C50.5095 387.613 50.5265 387.634 50.5468 387.652C50.6282 387.752 50.7096 387.852 50.7972 387.952V387.959C53.6324 391.256 57.4382 393.572 61.6697 394.575C62.2957 394.744 62.9341 394.881 63.5913 394.994C70.5956 396.233 78.5074 397.373 86.2627 398.374C89.4737 398.787 92.6598 399.175 95.7394 399.538C101.905 400.264 107.663 400.878 112.408 401.366C119.055 402.042 123.725 402.461 124.764 402.549L136.375 456.718C135.464 458.259 135.1 460.062 135.343 461.836C135.587 463.61 136.422 465.249 137.715 466.488L138.666 467.409L139.768 472.566L143.398 477.423L143.855 478.037H159.873L159.96 477.93C160.017 477.855 165.65 470.62 165.268 462C165.231 461.112 164.611 460.267 163.96 459.365Z" fill="#2F2E41"/>
<path d="M163.523 277.822C162.31 277.491 161.039 277.429 159.799 277.642C158.56 277.854 157.382 278.336 156.349 279.053C155.316 279.77 154.453 280.705 153.821 281.792C153.188 282.879 152.801 284.091 152.688 285.343L133.927 291.207L134.71 303.477L161.087 294.824C163.204 294.875 165.266 294.148 166.882 292.781C168.498 291.413 169.557 289.501 169.857 287.405C170.157 285.309 169.678 283.176 168.511 281.41C167.343 279.644 165.568 278.367 163.523 277.822V277.822Z" fill="#9E616A"/>
<path d="M151.282 298.127L137.26 303.434L136.902 304.129C136.476 304.955 135.892 305.689 135.183 306.289C134.474 306.889 133.653 307.343 132.768 307.626C131.883 307.909 130.952 308.015 130.026 307.937C129.1 307.86 128.199 307.601 127.373 307.176V307.176L95.8568 319.104C95.8568 319.104 81.7823 305.02 71.7618 292.45L75.177 271.444C75.968 266.57 77.6492 261.884 80.1365 257.619C100.687 262.125 112.483 290.852 112.483 290.852L149.52 283.786L151.282 298.127Z" fill="#F9A826"/>
<path d="M77.5368 239.054C71.8841 240.581 65.6521 238.551 61.2407 234.701C56.8293 230.851 54.0697 225.395 52.4797 219.76C51.3152 215.633 50.7631 211.052 52.6007 207.177C54.4383 203.302 59.3841 200.688 63.1997 202.646C60.8459 199.903 62.0218 195.367 64.7709 193.021C67.52 190.675 71.2949 190.003 74.8902 189.635C80.1079 189.101 85.4976 189.042 90.4627 190.732C95.4278 192.422 99.939 196.118 101.493 201.128C103.08 201.867 104.867 202.058 106.575 201.673C108.283 201.287 109.814 200.346 110.93 198.997C111.218 200.547 110.987 202.148 110.273 203.553C109.559 204.958 108.402 206.088 106.98 206.769L114.588 204.303C115.896 207.072 113.604 210.5 110.672 211.387C107.74 212.273 104.576 211.304 101.794 210.023C99.012 208.742 96.316 207.122 93.2942 206.622C90.2725 206.122 86.723 207.093 85.3252 209.819C84.5931 211.246 84.555 212.918 84.1299 214.465C83.7049 216.011 82.6282 217.615 81.029 217.742C80.0186 217.822 79.0294 217.284 78.0219 217.394C77.4035 217.515 76.8341 217.815 76.3834 218.255C75.9327 218.696 75.6201 219.258 75.4841 219.873C75.2332 221.108 75.2301 222.38 75.475 223.616L77.4075 238.387L77.5368 239.054Z" fill="#2F2E41"/>
<path d="M105.905 351.291L104.709 349.495L95.9835 336.407L95.8082 336.15L98.506 322.154L99.3448 317.785L101.179 308.277L100.647 286.513L100.265 271.115L100.209 268.699L98.2744 262.803C97.3575 260.045 95.8844 257.506 93.9465 255.341C92.0085 253.175 89.6468 251.431 87.0076 250.215L73.9881 244.256C72.4559 243.559 70.7094 243.499 69.1328 244.089C67.5561 244.679 66.2785 245.871 65.581 247.403C65.5227 247.531 65.4687 247.661 65.4191 247.793C63.6352 248.037 55.8923 249.339 49.3263 254.434C44.7264 257.934 41.5152 262.95 40.2627 268.593C40.2502 268.637 40.244 268.68 40.2314 268.724C39.3614 272.611 38.7104 278.745 38.291 287.058C38.0094 292.553 37.832 298.992 37.759 306.374C37.6422 318.679 38.3343 330.978 39.8308 343.192C39.9748 344.356 40.125 345.514 40.2815 346.678C40.413 347.655 41.3519 348.587 42.2595 349.482C43.092 350.302 43.9495 351.154 44.0684 351.923C44.1748 352.599 43.7429 353.307 43.2297 354.045C43.1671 354.139 43.0982 354.233 43.0356 354.327C42.3972 355.235 41.7399 356.18 41.9089 357.175C42.3033 359.416 42.5349 361.694 42.754 363.898C42.9986 366.931 43.4377 369.946 44.0684 372.924C44.2875 373.837 44.5379 374.758 44.8195 375.678C45.4768 377.837 46.2717 379.99 47.0479 382.094C47.7176 383.921 48.4124 385.799 49.0008 387.652C49.1134 387.996 49.2199 388.334 49.32 388.672L49.3701 388.847L49.5516 388.879H49.5641C49.8107 388.439 50.1045 388.028 50.4404 387.652C50.4556 387.628 50.4746 387.607 50.4968 387.589C50.5844 387.483 50.6846 387.37 50.7972 387.251C52.168 385.755 55.1475 383.07 61.6697 378.544C63.1281 377.537 64.7618 376.441 66.5896 375.24C73.2933 370.852 82.6573 365.137 95.7394 357.757C99.0193 355.904 102.539 353.945 106.299 351.88L105.905 351.291Z" fill="#F9A826"/>
<path d="M176.116 488.985C174.595 487.458 172.787 486.248 170.797 485.424C168.806 484.6 166.672 484.178 164.517 484.184L157.713 479.026L156.818 478.344L150.759 480.81C152.875 481.742 155.015 482.65 157.162 483.526C163.879 486.268 170.737 488.717 177.737 490.875C177.245 490.205 176.703 489.573 176.116 488.985V488.985Z" fill="#2F2E41"/>
<path d="M327.236 469.957L318.714 465.882L330.42 430.263L342.997 436.278L327.236 469.957Z" fill="#FFB6B6"/>
<path d="M384.364 464.216C381.886 465.762 379.376 467.265 376.834 468.723V468.742L376.797 468.748L376.784 468.754L375.82 468.992L374.437 465.337L371.245 456.905L362.544 433.934L376.071 430.597L376.834 433.696L382.555 456.899L384.195 463.534L384.364 464.216Z" fill="#FFB6B6"/>
<path d="M349.866 315.143C351.081 317.116 353.02 318.537 355.269 319.101C357.517 319.665 359.897 319.328 361.9 318.162C362.303 317.918 362.685 317.641 363.042 317.334L389.983 332.795L388.813 316.924L363.409 304.676C362.027 303.287 360.223 302.397 358.28 302.143C356.337 301.89 354.365 302.289 352.673 303.277C350.736 304.44 349.341 306.325 348.794 308.516C348.247 310.708 348.593 313.027 349.756 314.964C349.792 315.024 349.828 315.083 349.866 315.143Z" fill="#FFB6B6"/>
<path d="M378.4 326.973L383.163 329.875L404.55 342.917C405.954 343.796 407.517 344.389 409.151 344.663C410.784 344.938 412.455 344.887 414.069 344.516C415.683 344.144 417.208 343.458 418.556 342.498C419.905 341.537 421.051 340.32 421.93 338.916L421.937 338.904C423.52 336.295 424.081 333.192 423.51 330.194L414.004 282.702C413.653 280.838 412.903 279.071 411.806 277.523C410.709 275.975 409.291 274.682 407.649 273.733C406.006 272.783 404.178 272.2 402.29 272.022C400.401 271.844 398.496 272.076 396.705 272.702C393.695 273.76 391.201 275.925 389.73 278.756C388.259 281.588 387.923 284.873 388.789 287.944L398.729 321.648L383.492 314.544L378.4 326.973Z" fill="#F9A826"/>
<path d="M466.099 373.8C466.093 373.781 466.08 373.712 466.061 373.606L466.043 373.537C465.999 373.312 465.949 373.061 465.892 372.786C464.615 366.444 462.975 360.18 460.979 354.027C459.796 350.258 458.23 346.621 456.303 343.173C456.24 343.06 456.172 342.948 456.103 342.835L455.871 342.459L453.924 343.173L453.849 343.198L424.255 354.045L415.699 357.181L415.429 357.281L413.971 363.228L393.509 360.58L376.834 358.421L372.046 357.801C369.97 357.53 367.861 357.676 365.842 358.228C363.823 358.78 361.934 359.729 360.285 361.018C358.564 362.353 357.126 364.016 356.054 365.912C354.983 367.807 354.299 369.897 354.044 372.06C353.981 372.536 353.944 373.017 353.925 373.493L352.479 427.43V427.499L353.149 428.838L367.139 456.905H376.834L382.555 456.899H387.206L377.535 432.431L377.754 432.099C378.664 430.705 379.238 429.118 379.43 427.463C379.622 425.809 379.428 424.133 378.862 422.567L379.951 419.412C382.211 412.896 381.141 409.766 379.789 405.81C378.574 402.594 377.861 399.21 377.673 395.777L377.448 391.314C383.125 392.309 388.414 393.417 393.509 394.531C395.212 394.9 396.898 395.274 398.567 395.651C403.318 396.709 407.906 397.729 412.4 398.581C421.501 400.315 430.22 401.372 439.177 400.715C439.353 400.703 439.528 400.69 439.703 400.671C441.881 400.496 444.072 400.214 446.288 399.82C447.534 399.595 448.786 399.338 450.05 399.038C450.4 398.95 450.757 398.862 451.108 398.775C452.081 398.518 453.019 398.142 453.899 397.654C455.152 396.955 456.318 396.11 457.373 395.138C457.38 395.132 457.386 395.132 457.386 395.126C459.114 392.672 460.797 390.181 462.437 387.652C463.32 386.294 464.196 384.923 465.054 383.546C466.305 380.109 466.781 376.642 466.099 373.8Z" fill="#2F2E41"/>
<path d="M466.305 363.666C466.212 363.265 466.093 362.859 465.967 362.464C464.974 359.477 463.816 356.548 462.5 353.689C461.023 350.434 459.251 346.947 457.142 343.173C456.121 341.345 455.024 339.444 453.849 337.471C453.261 336.482 452.65 335.474 452.015 334.447C451.991 334.4 451.963 334.354 451.934 334.31L451.752 334.009L422.471 337.928L411.567 339.386L410.916 344.819L410.76 346.165C410.754 346.165 410.754 346.165 410.76 346.171L410.322 349.839V349.845L409.74 354.69L409.69 354.684L393.509 352.587L376.834 350.427L367.877 349.269C365.801 348.999 363.692 349.144 361.673 349.696C359.654 350.249 357.765 351.197 356.116 352.487C354.395 353.821 352.957 355.484 351.885 357.38C350.814 359.276 350.131 361.366 349.875 363.528C349.819 363.966 349.781 364.417 349.763 364.862L341.312 384.885C336.256 396.86 333.036 409.53 331.761 422.466L325.564 442.277L326.446 442.359L339.579 443.579L343.046 443.905L350.683 432.757C351.553 431.486 352.379 430.178 353.149 428.838C354.416 426.651 355.543 424.384 356.523 422.053L373.041 382.744C374.318 382.964 375.582 383.172 376.834 383.37C382.624 384.309 388.183 385.075 393.509 385.668C410.829 387.602 425.826 387.752 439.177 386.112C442.927 385.655 446.551 385.054 450.05 384.309C451.333 384.04 452.6 383.75 453.849 383.439C454.144 383.37 454.431 383.302 454.719 383.226C457.306 382.559 459.684 381.254 461.636 379.43C463.588 377.606 465.052 375.322 465.892 372.786C466.896 369.847 467.039 366.683 466.305 363.666V363.666Z" fill="#2F2E41"/>
<path d="M404.04 245.446C415.227 245.446 424.295 236.176 424.295 224.74C424.295 213.305 415.227 204.035 404.04 204.035C392.854 204.035 383.786 213.305 383.786 224.74C383.786 236.176 392.854 245.446 404.04 245.446Z" fill="#FFB6B6"/>
<path d="M452.134 335.142C452.103 334.911 452.065 334.679 452.015 334.447C451.533 331.906 450.282 329.415 449.073 326.999C447.922 324.695 446.826 322.517 446.376 320.351C445.931 318.217 446.194 316.076 446.451 314.011C446.726 311.77 447.014 309.454 446.369 307.207C443.1 295.731 438.609 284.638 432.974 274.12C431.553 269.495 428.827 265.378 425.125 262.262C421.422 259.147 416.9 257.166 412.1 256.556C412.66 255.51 412.893 254.319 412.769 253.138C412.691 252.376 412.462 251.636 412.095 250.962C411.729 250.289 411.233 249.694 410.635 249.214C410.061 248.751 409.4 248.407 408.692 248.201C407.985 247.994 407.243 247.93 406.51 248.012L397.096 249.07C395.587 249.259 394.213 250.037 393.274 251.234C392.335 252.431 391.907 253.95 392.082 255.461C392.135 255.926 392.24 256.384 392.395 256.825C383.657 267.954 379.169 278.094 378.756 287.684V287.69C378.706 288.798 378.712 289.907 378.775 291.014C378.973 294.594 379.751 298.118 381.078 301.448C382.646 305.296 384.744 308.905 387.312 312.17C387.838 312.834 388.383 313.485 388.946 314.123C389.472 314.749 390.06 315.406 390.711 316.095L392.357 318.674L393.891 321.084L402.091 340.006L406.266 339.868L406.848 344.03L406.986 345.001L409.69 354.684L409.89 355.41L413.589 353.651L435.66 343.173L452.159 335.336L452.134 335.142Z" fill="#F9A826"/>
<path opacity="0.2" d="M381.326 301.348C383.208 305.957 385.853 310.216 389.151 313.946C389.716 314.621 390.313 315.284 390.937 315.947L394.141 320.975C405.952 312.122 415.521 277.264 415.521 277.264L402.195 274.672L381.326 301.348Z" fill="black"/>
<path d="M373.258 247.38C374.425 249.385 374.764 251.765 374.202 254.016C373.641 256.266 372.223 258.209 370.251 259.43C369.847 259.672 369.423 259.88 368.984 260.052L369.927 291.1L356.481 282.636L357.647 254.45C357.075 252.574 357.14 250.562 357.832 248.727C358.524 246.892 359.803 245.338 361.471 244.307C363.4 243.14 365.712 242.787 367.901 243.326C370.089 243.865 371.974 245.251 373.14 247.179C373.18 247.246 373.22 247.313 373.258 247.38Z" fill="#FFB6B6"/>
<path d="M371.109 279.38L356.323 281.483L356.958 312.102C356.995 314.287 357.59 316.425 358.686 318.315C359.782 320.205 361.344 321.783 363.222 322.899V322.899C365.516 324.249 368.187 324.816 370.831 324.516C373.476 324.216 375.952 323.064 377.885 321.234L412.793 287.657C415.249 285.327 416.719 282.145 416.901 278.764C417.082 275.384 415.961 272.062 413.768 269.483C411.62 266.94 408.549 265.354 405.232 265.075C401.915 264.796 398.622 265.846 396.079 267.995C395.98 268.079 395.881 268.164 395.785 268.251C395.44 268.56 395.111 268.887 394.802 269.23L371.751 295.747L371.109 279.38Z" fill="#F9A826"/>
<path d="M384.74 463.434L384.195 463.534L376.834 464.892L374.437 465.337L370.663 466.031L372.002 471.433C373.611 470.563 375.201 469.668 376.784 468.754L376.797 468.748L376.834 468.742V468.723C379.376 467.271 381.886 465.769 384.364 464.216C384.54 464.11 384.715 464.003 384.89 463.885L384.74 463.434Z" fill="#2F2E41"/>
<path d="M329.958 464.141L320.738 459.722L319.292 459.027L316.982 464.698L300.858 468.247C300.061 468.422 299.341 468.847 298.802 469.461C298.264 470.074 297.936 470.843 297.866 471.657C297.796 472.47 297.988 473.284 298.414 473.98C298.839 474.677 299.477 475.219 300.232 475.527L315.987 481.955L320.988 477.455L319.762 483.495L325.695 485.917L332.199 465.218L329.958 464.141Z" fill="#2F2E41"/>
<path d="M458.239 215.76C454.796 211.746 453.159 206.419 450.407 201.86C447.655 197.301 442.865 193.22 437.805 194.281C434.317 195.013 431.622 198.09 430.257 201.522C428.893 204.953 428.637 208.737 428.398 212.444C428.482 204.826 423.463 197.441 416.549 195.01C409.635 192.579 401.361 195.29 397.017 201.411C395.121 199.654 392.646 198.653 390.062 198.599C387.477 198.544 384.963 199.44 382.995 201.116C379.109 204.59 378.249 211.2 381.107 215.63C383.965 220.06 390.154 221.711 394.695 219.254L396.301 220.731C395.397 223.892 397.15 227.626 400.096 228.816C402.485 229.781 405.858 229.62 406.752 232.127C407.377 233.879 406.209 235.749 404.967 237.095C403.725 238.441 402.25 239.831 402.101 241.694C401.876 244.505 404.78 246.474 407.421 247.067C413.788 248.497 420.852 245.549 424.521 239.93C424.592 239.822 424.669 239.713 424.752 239.604C426.811 236.972 428.311 233.947 429.161 230.714C430.012 227.482 430.194 224.111 429.697 220.805C429.491 219.507 429.699 218.541 430.594 218.233C434.464 216.904 445.306 219.694 448.588 222.216C451.869 224.737 454.497 228.074 457.657 230.758C460.818 233.442 464.846 235.513 468.859 234.782C472.073 234.197 474.808 231.863 476.647 229.048C478.486 226.234 479.545 222.953 480.493 219.692C473.385 223.798 463.658 222.08 458.239 215.76Z" fill="#2F2E41"/>
<path d="M393.507 339.183V458.236C391.241 459.795 388.946 461.311 386.622 462.787V347.076C386.622 343.721 385.495 340.998 384.112 340.992H279.9C278.51 340.998 277.39 343.721 277.383 347.076V500.718C275.994 500.856 274.604 500.987 273.215 501.1C272.639 501.15 272.057 501.194 271.481 501.238C271.149 500.624 270.824 500.005 270.498 499.379V339.183C270.498 338.257 270.536 337.324 270.598 336.404C271.162 328.592 273.959 322.884 277.233 322.871H386.772C387.168 322.874 387.56 322.957 387.923 323.115C390.665 324.28 392.831 329.387 393.375 335.991C393.463 337.042 393.513 338.113 393.507 339.183Z" fill="#E4E4E4"/>
<path d="M226.301 339.183V500.243C226.207 500.393 226.113 500.537 226.019 500.687C223.666 500.449 221.322 500.176 218.99 499.867V347.076C218.99 343.721 217.794 340.998 216.323 340.992H105.714C104.243 340.998 103.048 343.721 103.048 347.076V453.147C100.575 451.326 98.1384 449.458 95.7369 447.545V339.183C95.7369 338.257 95.7745 337.324 95.8433 336.404C96.438 328.592 99.4112 322.884 102.891 322.871H219.146C219.565 322.872 219.98 322.955 220.367 323.115C223.277 324.28 225.581 329.387 226.163 335.991C226.257 337.042 226.301 338.113 226.301 339.183Z" fill="#E4E4E4"/>
<path d="M189.232 285.659L196.481 317.554L201.113 322.628H204.455L190.682 264.637L190.001 274.489V274.496L189.232 285.659Z" fill="#3F3D56"/>
<path d="M213.371 324.257C213.35 324.208 213.323 324.162 213.29 324.119C213.223 323.969 213.128 323.833 213.008 323.719L212.163 322.874L207.719 318.423C207.393 318.104 206.955 317.925 206.499 317.923H206.48L203.344 317.941L200.646 317.96L196.878 317.985L171.215 318.148L154.346 318.254C153.889 318.26 153.452 318.445 153.13 318.769C152.809 319.094 152.627 319.531 152.624 319.988C152.627 320.241 152.682 320.491 152.787 320.721L153.113 321.415L153.795 322.874L154.684 324.783L155.122 325.722C155.262 326.021 155.484 326.274 155.762 326.451C156.04 326.628 156.363 326.723 156.693 326.723H211.782C212.071 326.718 212.355 326.641 212.609 326.5C212.862 326.359 213.076 326.157 213.233 325.914C213.39 325.67 213.485 325.392 213.509 325.103C213.533 324.814 213.486 324.523 213.371 324.257H213.371Z" fill="#3F3D56"/>
<path opacity="0.17" d="M154.685 324.781L155.119 325.724C155.261 326.022 155.484 326.274 155.762 326.451C156.04 326.628 156.363 326.722 156.692 326.724H211.783C212.073 326.719 212.357 326.642 212.61 326.501C212.863 326.36 213.078 326.159 213.235 325.915C213.392 325.672 213.486 325.393 213.51 325.105C213.534 324.816 213.486 324.526 213.371 324.26C213.351 324.21 213.324 324.163 213.291 324.122L154.685 324.781Z" fill="black"/>
<path opacity="0.17" d="M190.001 274.489V274.496L201.795 322.628H204.455L190.682 264.637L190.001 274.489Z" fill="black"/>
<path d="M208.502 139.794L206.774 139.562C206.3 139.501 205.821 139.629 205.441 139.919L204.408 140.714L192.909 155.098C192.53 155.392 192.282 155.824 192.221 156.3L191.576 161.195L175.527 283.308C175.47 283.761 175.584 284.219 175.846 284.592L183.408 305.435L183.633 305.761L184.121 306.456C184.373 306.808 184.741 307.061 185.16 307.169L186.256 307.444C186.505 307.507 186.764 307.516 187.016 307.47C187.269 307.425 187.509 307.327 187.72 307.182C187.933 307.039 188.112 306.852 188.246 306.634C188.38 306.416 188.465 306.171 188.497 305.917L190.456 291.032V291.026L191.708 281.474L192.766 273.419V273.412L210.066 141.822C210.129 141.347 210 140.866 209.708 140.486C209.416 140.106 208.986 139.858 208.51 139.795L208.502 139.794Z" fill="#3F3D56"/>
<path opacity="0.17" d="M204.405 140.715L183.407 305.438L183.635 305.76L184.121 306.453C184.372 306.807 184.741 307.06 185.161 307.167L186.258 307.443C186.506 307.505 186.764 307.513 187.016 307.468C187.268 307.423 187.507 307.325 187.719 307.181C187.93 307.037 188.109 306.85 188.243 306.632C188.377 306.414 188.464 306.171 188.498 305.917L210.065 141.824C210.127 141.348 209.998 140.866 209.705 140.485C209.412 140.103 208.98 139.854 208.504 139.791L206.772 139.564C206.537 139.532 206.298 139.547 206.069 139.609C205.84 139.67 205.625 139.777 205.438 139.922L204.405 140.715Z" fill="black"/>
<path d="M203.786 145.425L192.643 161.331L179.398 262.107L186.579 276.353L203.786 145.425Z" fill="#F9A826"/>
<path d="M312.335 285.659L305.087 317.554L300.455 322.628H297.113L310.886 264.637L311.567 274.489V274.496L312.335 285.659Z" fill="#3F3D56"/>
<path d="M347.221 318.254L304.695 317.985L300.921 317.96L298.229 317.941L295.093 317.923H295.068C294.613 317.924 294.177 318.103 293.854 318.423L288.559 323.719C288.441 323.834 288.346 323.97 288.277 324.119C288.244 324.162 288.217 324.208 288.196 324.257C288.081 324.523 288.034 324.814 288.058 325.103C288.082 325.392 288.176 325.67 288.334 325.914C288.491 326.157 288.705 326.359 288.958 326.5C289.212 326.641 289.496 326.718 289.785 326.723H344.874C345.205 326.722 345.528 326.627 345.807 326.45C346.086 326.273 346.31 326.021 346.451 325.722L346.883 324.783L347.772 322.874L348.78 320.721C348.887 320.491 348.943 320.241 348.943 319.988C348.94 319.531 348.758 319.094 348.436 318.769C348.115 318.445 347.678 318.26 347.221 318.254V318.254Z" fill="#3F3D56"/>
<path opacity="0.17" d="M346.883 324.781L346.448 325.724C346.307 326.022 346.084 326.274 345.806 326.451C345.528 326.628 345.205 326.722 344.875 326.724H289.785C289.495 326.719 289.211 326.642 288.958 326.501C288.705 326.36 288.49 326.159 288.333 325.915C288.176 325.672 288.082 325.393 288.058 325.105C288.034 324.816 288.082 324.526 288.197 324.26C288.216 324.21 288.243 324.163 288.277 324.122L346.883 324.781Z" fill="black"/>
<path opacity="0.17" d="M311.567 274.489V274.496L299.773 322.628H297.113L310.886 264.637L311.567 274.489Z" fill="black"/>
<path d="M326.04 283.308L309.346 156.3C309.285 155.824 309.037 155.392 308.657 155.098L297.165 140.714L296.132 139.919C295.75 139.63 295.269 139.502 294.793 139.562L293.065 139.794C292.589 139.855 292.156 140.104 291.863 140.484C291.569 140.864 291.439 141.346 291.501 141.822V141.822L308.801 273.419V273.425L309.859 281.474L311.117 291.033V291.045L313.07 305.917C313.101 306.172 313.187 306.417 313.323 306.635C313.458 306.854 313.639 307.04 313.853 307.182C314.063 307.327 314.302 307.425 314.554 307.47C314.805 307.516 315.063 307.507 315.311 307.445L316.407 307.169C316.826 307.061 317.194 306.808 317.446 306.456L317.934 305.761L318.159 305.435L325.72 284.592C325.986 284.22 326.1 283.761 326.04 283.308V283.308Z" fill="#3F3D56"/>
<path opacity="0.17" d="M297.162 140.715L318.161 305.438L317.933 305.76L317.446 306.453C317.195 306.807 316.827 307.06 316.407 307.167L315.31 307.443C315.062 307.505 314.803 307.513 314.552 307.468C314.3 307.423 314.06 307.325 313.849 307.181C313.637 307.037 313.459 306.85 313.324 306.632C313.19 306.414 313.103 306.171 313.07 305.917L291.503 141.824C291.441 141.348 291.57 140.866 291.863 140.485C292.155 140.103 292.587 139.854 293.064 139.791L294.796 139.564C295.031 139.532 295.27 139.547 295.499 139.609C295.728 139.67 295.942 139.777 296.13 139.922L297.162 140.715Z" fill="black"/>
<path d="M297.781 145.425L308.925 161.331L322.17 262.107L314.989 276.353L297.781 145.425Z" fill="#F9A826"/>
<path d="M90.6631 348.606C90.6648 348.921 90.6375 349.235 90.5817 349.545C90.5566 349.695 90.5253 349.839 90.4878 349.983C90.1829 351.147 89.5009 352.177 88.5485 352.912C87.596 353.647 86.4268 354.046 85.2237 354.045H61.6697V410.223C61.6708 411.41 61.2815 412.565 60.5618 413.509C60.0235 412.877 59.4915 412.245 58.9657 411.606C56.149 408.239 53.4262 404.796 50.7972 401.278V354.045H40.2815C38.8794 354.044 37.5318 353.502 36.5202 352.531C35.5087 351.56 34.9115 350.235 34.8533 348.835C34.7951 347.434 35.2805 346.064 36.2081 345.013C37.1356 343.961 38.4336 343.309 39.8308 343.192C39.9811 343.179 40.1313 343.173 40.2815 343.173H85.2237C86.6654 343.172 88.0482 343.744 89.0682 344.763C90.0882 345.782 90.6619 347.164 90.6631 348.606V348.606Z" fill="#3F3D56"/>
<path d="M465.992 348.606C465.993 349.707 465.659 350.782 465.036 351.69C464.412 352.597 463.528 353.294 462.5 353.689C462.012 353.875 461.5 353.989 460.979 354.027C460.841 354.039 460.697 354.045 460.559 354.045H450.05V405.034C449.893 405.241 449.731 405.447 449.568 405.654C447.096 408.815 444.548 411.913 441.925 414.949C441.088 414.477 440.392 413.79 439.909 412.96C439.426 412.129 439.173 411.184 439.177 410.223V354.045H415.617C414.922 354.048 414.233 353.914 413.589 353.651C412.778 353.327 412.058 352.811 411.489 352.149C410.92 351.486 410.52 350.696 410.322 349.845V349.839C410.03 348.603 410.185 347.304 410.76 346.171C410.754 346.165 410.754 346.165 410.76 346.165C411.009 345.666 411.334 345.21 411.724 344.813C412.231 344.294 412.836 343.881 413.505 343.6C414.174 343.318 414.892 343.173 415.617 343.173H460.559C462 343.173 463.382 343.745 464.401 344.763C465.42 345.782 465.992 347.163 465.993 348.604L465.992 348.606Z" fill="#3F3D56"/>
<path d="M465.633 243.863C463.396 243.863 461.181 244.304 459.114 245.16C457.047 246.016 455.169 247.271 453.587 248.853C452.006 250.434 450.751 252.312 449.895 254.379C449.039 256.446 448.598 258.661 448.598 260.898V260.898C448.599 264.85 449.973 268.678 452.485 271.728C454.998 274.778 458.492 276.86 462.371 277.617V305.478H473.244V243.863H465.633Z" fill="#3F3D56"/>
<path d="M168.22 306.065C167.136 305.429 165.925 305.038 164.673 304.92C163.421 304.802 162.158 304.959 160.974 305.382C159.79 305.805 158.713 306.482 157.818 307.366C156.924 308.25 156.235 309.32 155.798 310.499L136.158 311.265L133.511 320.414L161.433 321.843C163.463 322.445 165.643 322.281 167.56 321.382C169.477 320.484 170.998 318.913 171.835 316.969C172.671 315.024 172.766 312.84 172.099 310.83C171.433 308.82 170.053 307.125 168.22 306.065H168.22Z" fill="#9E616A"/>
<path d="M152.087 322.83L131.911 322.578L129.358 322.544L88.3102 322.026C88.3102 322.026 77.1635 311.392 67.4575 300.444L68.8179 290.604C70.1449 280.947 74.9353 272.101 82.2975 265.712C96.1989 275.001 104.261 293.387 104.261 293.387L117.778 299.436C127.29 299.861 136.56 302.576 144.799 307.35L149.244 309.925L152.087 322.83Z" fill="#F9A826"/>
<path d="M215.474 499.381H288.246C283.282 500.107 278.272 500.681 273.217 501.103H230.503C225.446 500.683 220.436 500.109 215.474 499.381Z" fill="#CCCCCC"/>
<path d="M230.105 462.746C231.514 450.035 239.211 437.426 251.258 433.135C246.66 446.26 246.852 460.589 251.802 473.586C253.729 478.591 256.393 483.958 254.712 489.051C253.665 492.22 251.035 494.669 248.079 496.218C245.123 497.767 241.829 498.53 238.577 499.279L237.942 499.818C232.608 488.195 228.697 475.456 230.105 462.746Z" fill="#CCCCCC"/>
<path d="M251.381 433.374C244.439 441.365 240.191 451.34 239.241 461.882C238.996 464.148 239.11 466.439 239.579 468.669C240.105 470.827 241.2 472.805 242.749 474.397C244.164 475.91 245.786 477.294 246.809 479.125C247.318 480.07 247.622 481.112 247.7 482.183C247.779 483.253 247.63 484.328 247.264 485.337C246.417 487.875 244.708 489.958 242.967 491.936C241.033 494.133 238.99 496.383 238.194 499.272C238.098 499.622 237.561 499.452 237.657 499.102C239.041 494.077 243.863 491.169 246.12 486.629C247.173 484.511 247.594 482.062 246.551 479.855C245.638 477.924 243.967 476.496 242.521 474.976C240.987 473.445 239.851 471.562 239.212 469.491C238.632 467.292 238.43 465.009 238.615 462.742C238.951 457.631 240.088 452.605 241.985 447.848C244.119 442.406 247.17 437.369 251.003 432.956C251.24 432.683 251.617 433.102 251.381 433.374H251.381Z" fill="white"/>
<path d="M239.347 458.47C237.6 458.07 236.052 457.063 234.979 455.627C233.906 454.191 233.379 452.421 233.49 450.632C233.496 450.559 233.529 450.491 233.583 450.442C233.638 450.394 233.709 450.368 233.782 450.371C233.855 450.373 233.924 450.404 233.975 450.457C234.026 450.509 234.054 450.58 234.054 450.653C233.947 452.318 234.438 453.967 235.44 455.302C236.442 456.637 237.888 457.57 239.517 457.932C239.871 458.011 239.699 458.548 239.347 458.47H239.347Z" fill="white"/>
<path d="M241.931 473.724C245.051 471.804 247.333 468.778 248.322 465.25C248.419 464.901 248.957 465.071 248.859 465.42C247.824 469.089 245.443 472.233 242.191 474.224C241.881 474.414 241.623 473.913 241.931 473.724Z" fill="white"/>
<path d="M244.649 442.933C245.293 443.228 246 443.359 246.707 443.314C247.414 443.268 248.099 443.048 248.7 442.673C249.007 442.479 249.265 442.98 248.96 443.173C248.294 443.584 247.538 443.827 246.757 443.878C245.976 443.93 245.194 443.79 244.48 443.47C244.41 443.446 244.352 443.395 244.318 443.33C244.284 443.264 244.276 443.188 244.296 443.117C244.319 443.045 244.369 442.986 244.435 442.952C244.501 442.917 244.578 442.91 244.649 442.933L244.649 442.933Z" fill="white"/>
<path d="M288.45 455.307C288.262 455.434 288.073 455.56 287.884 455.691C285.358 457.401 282.975 459.313 280.758 461.409C280.584 461.569 280.41 461.733 280.241 461.897C274.955 467.004 270.662 473.047 267.582 479.721C266.359 482.378 265.34 485.124 264.533 487.935C263.419 491.818 262.521 496.116 260.256 499.31C260.023 499.646 259.77 499.967 259.498 500.272L238.65 500.551C238.602 500.528 238.554 500.509 238.506 500.486L237.674 500.535C237.706 500.387 237.742 500.235 237.773 500.087C237.791 500.001 237.814 499.915 237.831 499.829C237.845 499.772 237.859 499.714 237.867 499.662C237.872 499.643 237.876 499.624 237.881 499.61C237.89 499.557 237.903 499.509 237.912 499.462C238.11 498.607 238.314 497.753 238.525 496.899C238.525 496.894 238.525 496.894 238.529 496.889C240.072 490.363 242.383 484.044 245.414 478.062C245.507 477.885 245.599 477.703 245.702 477.525C247.107 474.877 248.726 472.348 250.544 469.963C251.543 468.66 252.608 467.409 253.734 466.214C256.648 463.132 260.03 460.528 263.754 458.497C271.179 454.449 279.816 452.821 287.839 455.125C288.044 455.184 288.245 455.244 288.45 455.307Z" fill="#CCCCCC"/>
<path d="M288.407 455.573C278.053 457.773 268.655 463.181 261.549 471.026C259.99 472.688 258.702 474.585 257.733 476.648C256.854 478.688 256.537 480.927 256.816 483.13C257.034 485.19 257.496 487.272 257.21 489.35C257.048 490.411 256.663 491.426 256.082 492.328C255.5 493.23 254.734 493.999 253.834 494.584C251.629 496.1 249.011 496.734 246.43 497.265C243.564 497.855 240.577 498.422 238.203 500.249C237.915 500.471 237.588 500.011 237.875 499.79C242.006 496.611 247.607 497.192 252.143 494.926C254.259 493.869 256.069 492.168 256.565 489.777C256.999 487.686 256.524 485.539 256.285 483.455C255.981 481.309 256.208 479.122 256.945 477.084C257.806 474.978 259.019 473.034 260.532 471.336C263.877 467.457 267.811 464.128 272.19 461.472C277.171 458.412 282.638 456.227 288.356 455.011C288.71 454.936 288.759 455.498 288.407 455.573H288.407Z" fill="white"/>
<path d="M263.689 468.365C262.534 466.994 261.905 465.258 261.913 463.465C261.92 461.673 262.565 459.942 263.731 458.581C263.968 458.307 264.406 458.662 264.169 458.937C263.08 460.202 262.48 461.815 262.476 463.484C262.472 465.153 263.065 466.768 264.148 468.038C264.383 468.314 263.922 468.64 263.689 468.365Z" fill="white"/>
<path d="M256.567 482.1C260.215 482.446 263.859 481.404 266.772 479.182C267.06 478.962 267.387 479.421 267.099 479.641C264.063 481.948 260.269 483.024 256.474 482.656C256.112 482.621 256.208 482.065 256.567 482.1V482.1Z" fill="white"/>
<path d="M277.277 459.152C277.613 459.776 278.099 460.306 278.69 460.695C279.282 461.085 279.961 461.321 280.667 461.383C281.029 461.414 280.933 461.969 280.574 461.939C279.794 461.867 279.045 461.605 278.39 461.176C277.735 460.747 277.195 460.165 276.818 459.479C276.777 459.417 276.761 459.343 276.773 459.27C276.785 459.197 276.825 459.131 276.884 459.086C276.945 459.043 277.02 459.026 277.094 459.038C277.167 459.051 277.233 459.091 277.277 459.152V459.152Z" fill="white"/>
<path d="M299.264 473.016C302.926 473.016 305.895 470.047 305.895 466.385C305.895 462.723 302.926 459.755 299.264 459.755C295.602 459.755 292.634 462.723 292.634 466.385C292.634 470.047 295.602 473.016 299.264 473.016Z" fill="#CCCCCC"/>
<path d="M320.912 492.379C320.505 492.498 320.092 492.617 319.679 492.73C315.929 493.781 312.153 494.743 308.349 495.615C307.911 494.731 307.677 493.761 307.662 492.774C307.647 491.788 307.852 490.811 308.263 489.914C308.673 489.017 309.279 488.223 310.036 487.59C310.792 486.957 311.681 486.501 312.636 486.255C313.591 486.009 314.589 485.979 315.558 486.168C316.526 486.356 317.44 486.759 318.233 487.346C319.026 487.933 319.678 488.689 320.141 489.56C320.605 490.431 320.868 491.394 320.912 492.379V492.379Z" fill="#CCCCCC"/>
<path d="M358.793 478.146C358.286 478.383 357.779 478.621 357.272 478.853C356.721 479.116 356.164 479.366 355.614 479.617C354.994 479.898 354.38 480.174 353.761 480.449C351.432 481.488 349.079 482.49 346.719 483.454C346.688 483.403 346.656 483.347 346.625 483.291C345.799 481.742 345.62 479.928 346.129 478.247C346.638 476.567 347.793 475.156 349.34 474.326C350.887 473.496 352.701 473.313 354.382 473.818C356.064 474.323 357.477 475.474 358.311 477.019C358.503 477.38 358.664 477.757 358.793 478.146Z" fill="#CCCCCC"/>
<path d="M322.65 456.741C326.312 456.741 329.281 453.772 329.281 450.11C329.281 446.448 326.312 443.48 322.65 443.48C318.989 443.48 316.02 446.448 316.02 450.11C316.02 453.772 318.989 456.741 322.65 456.741Z" fill="#CCCCCC"/>
<path d="M261.829 86.8186C222.827 97.0777 179.612 103.318 135.672 105.027C129.232 105.378 122.777 105.334 116.343 104.896C102.203 103.706 90.091 99.2622 76.6021 96.8336C70.1174 95.6693 62.8941 94.8181 56.3656 93.5599C57.8741 91.6884 59.4097 89.8398 60.9725 88.0141C75.0498 89.2034 89.3461 93.0967 103.592 94.9057C127.81 97.9853 154.944 94.5489 173.303 86.0737C182.21 81.9613 189.033 76.8287 197.908 72.6975C199.115 72.0778 200.423 71.6772 201.77 71.5145C204.581 71.2579 207.047 72.3908 209.056 73.4048C223.947 80.9223 245.567 87.0314 265.634 83.6702C267.13 84.8406 264.289 86.1739 261.829 86.8186Z" fill="white"/>
<path d="M350.63 113.274C350.814 113.24 350.997 113.214 351.181 113.182C350.41 112.705 349.684 112.158 349.012 111.549L350.63 113.274Z" fill="white"/>
<path d="M470.76 129.105C462.378 129.775 453.953 130.274 445.484 130.601C439.045 130.949 432.59 130.905 426.156 130.47C412.016 129.274 399.904 124.836 386.415 122.408C374.053 120.186 359.03 119.115 351.181 114.183C371.468 110.672 392.487 117.82 413.405 120.48C430.326 122.561 447.479 121.714 464.112 117.976C466.428 121.619 468.644 125.329 470.76 129.105Z" fill="white"/>
<path d="M282.089 224.998C262.455 157.605 250.898 88.1175 250.898 17.9218V12.8345H244.374V17.9217C244.374 88.1175 232.817 157.605 213.183 224.998C212.233 228.261 211.753 231.642 211.754 235.04V235.04C211.754 236.325 212.008 237.597 212.499 238.785C212.991 239.972 213.712 241.051 214.621 241.959C215.529 242.868 216.608 243.589 217.795 244.081C218.983 244.573 220.255 244.826 221.54 244.826H234.588C234.588 246.539 234.926 248.236 235.581 249.819C236.237 251.402 237.198 252.84 238.41 254.052C239.621 255.263 241.06 256.225 242.643 256.88C244.226 257.536 245.922 257.873 247.636 257.873C249.349 257.873 251.046 257.536 252.629 256.88C254.212 256.225 255.651 255.263 256.862 254.052C258.074 252.84 259.035 251.402 259.691 249.819C260.346 248.236 260.684 246.539 260.684 244.826H270.837V272.948C269.405 272.99 268.043 273.578 267.031 274.592C266.019 275.606 265.433 276.969 265.395 278.402C265.356 279.834 265.867 281.227 266.823 282.294C267.779 283.361 269.107 284.022 270.535 284.141C271.963 284.26 273.382 283.828 274.501 282.934C275.62 282.039 276.355 280.75 276.554 279.331C276.753 277.912 276.401 276.471 275.57 275.304C274.74 274.136 273.494 273.33 272.089 273.052V244.826H273.732C276.327 244.826 278.816 243.795 280.651 241.959C282.486 240.124 283.517 237.635 283.517 235.04V235.04C283.519 231.642 283.039 228.261 282.089 224.998V224.998Z" fill="white"/>
</svg>
