<svg width="20" height="20" viewBox="0 0 20 20" fill="none" xmlns="http://www.w3.org/2000/svg">
<path fill-rule="evenodd" clip-rule="evenodd" d="M10 4.117L17.5 11.617V16.8759C17.5 17.9114 16.6605 18.7509 15.625 18.7509H4.375C3.33947 18.7509 2.5 17.9114 2.5 16.8759V11.617L10 4.117Z" fill="#2A2962"/>
<path fill-rule="evenodd" clip-rule="evenodd" d="M16.25 3.12588V7.50088L13.75 5.00088V3.12588C13.75 2.7807 14.0298 2.50088 14.375 2.50088H15.625C15.9702 2.50088 16.25 2.7807 16.25 3.12588Z" fill="#2A2962"/>
<path fill-rule="evenodd" clip-rule="evenodd" d="M9.11612 1.87588C9.60427 1.38773 10.3957 1.38773 10.8839 1.87588L19.1919 10.1839C19.436 10.428 19.436 10.8237 19.1919 11.0678C18.9479 11.3119 18.5521 11.3119 18.3081 11.0678L10 2.75977L1.69194 11.0678C1.44786 11.3119 1.05214 11.3119 0.808058 11.0678C0.563981 10.8237 0.563981 10.428 0.808058 10.1839L9.11612 1.87588Z" fill="#2A2962"/>
</svg>
