<svg width="20" height="20" viewBox="0 0 20 20" fill="none" xmlns="http://www.w3.org/2000/svg">
<path d="M8.75 17.5C8.75 17.5 7.5 17.5 7.5 16.25C7.5 15 8.75 11.25 13.75 11.25C18.75 11.25 20 15 20 16.25C20 17.5 18.75 17.5 18.75 17.5H8.75Z" fill="#FBFBFB"/>
<path d="M13.75 10C15.8211 10 17.5 8.32107 17.5 6.25C17.5 4.17893 15.8211 2.5 13.75 2.5C11.6789 2.5 10 4.17893 10 6.25C10 8.32107 11.6789 10 13.75 10Z" fill="#FBFBFB"/>
<path fill-rule="evenodd" clip-rule="evenodd" d="M6.52045 17.5C6.34445 17.1449 6.25 16.7239 6.25 16.25C6.25 14.5557 7.09882 12.8132 8.66991 11.6C7.98262 11.3801 7.18137 11.25 6.25 11.25C1.25 11.25 0 15 0 16.25C0 17.5 1.25 17.5 1.25 17.5H6.52045Z" fill="#FBFBFB"/>
<path d="M5.625 10C7.35089 10 8.75 8.60089 8.75 6.875C8.75 5.14911 7.35089 3.75 5.625 3.75C3.89911 3.75 2.5 5.14911 2.5 6.875C2.5 8.60089 3.89911 10 5.625 10Z" fill="#FBFBFB"/>
</svg>
